# xmcd
#
# Track frame offsets:
# 150
# 13137
# 27650
# 42755
# 55252
# 64760
# 77741
# 90781
# 101327
# 113495
# 124928
# 136910
#
# Disc length: 1979 seconds
#
#
# Revision: 0
# Processed by: cddbd v1.5PL3 Copyright (c) Steve Scherf et al.
# Submitted via: FreeRIP 2.53 
#
DISCID=9107b90c
DTITLE=Tubb, Ernest - Best Of
DYEAR=1900
DGENRE=Country
TTITLE0=Waling The Floor Over You
TTITLE1=It's Been So Long
TTITLE2=Rainbow At Midnight
TTITLE3=Drivin' Nails In My Coffin
TTITLE4=Have You Ever Been Lonely
TTITLE5=Slipping Around
TTITLE6=Driftwood On The River
TTITLE7=Two Glasses Joe
TTITLE8=Half A Mind
TTITLE9=Thanks A Lot
TTITLE10=Waltz Across Texas
TTITLE11=Sweet Thang (w/Lorretta Lynn)
EXTD=
EXTT0=
EXTT1=
EXTT2=
EXTT3=
EXTT4=
EXTT5=
EXTT6=
EXTT7=
EXTT8=
EXTT9=
EXTT10=
EXTT11=
PLAYORDER=
